solid BARRA MOTORES
facet normal 0.0 1.0 0.0
  outer loop
    vertex 41.970753770629514 46.931005436886224 11.0
    vertex 97.97075377062951 46.931005436886224 0.0
    vertex 41.970753770629514 46.931005436886224 0.0
  endloop
endfacet
facet normal 0.0 1.0 0.0
  outer loop
    vertex 97.97075377062951 46.931005436886224 0.0
    vertex 41.970753770629514 46.931005436886224 11.0
    vertex 97.97075377062951 46.931005436886224 11.0
  endloop
endfacet
facet normal 1.0 0.0 0.0
  outer loop
    vertex 97.97075377062951 46.931005436886224 0.0
    vertex 97.97075377062951 34.931005436886224 11.0
    vertex 97.97075377062951 34.931005436886224 0.0
  endloop
endfacet
facet normal 1.0 0.0 0.0
  outer loop
    vertex 97.97075377062951 34.931005436886224 11.0
    vertex 97.97075377062951 46.931005436886224 0.0
    vertex 97.97075377062951 46.931005436886224 11.0
  endloop
endfacet
facet normal 1.5111813181318877e-32 -1.4526083988244488e-32 1.0
  outer loop
    vertex 41.970753770629514 34.931005436886224 11.0
    vertex 68.67665854511691 36.10137630544089 11.0
    vertex 41.970753770629514 46.931005436886224 11.0
  endloop
endfacet
facet normal 1.5111813181318877e-32 -1.4526083988244488e-32 1.0
  outer loop
    vertex 68.67665854511691 36.10137630544089 11.0
    vertex 41.970753770629514 34.931005436886224 11.0
    vertex 69.97075377062951 35.931005436886224 11.0
  endloop
endfacet
facet normal 1.5111813181318877e-32 -1.4526083988244488e-32 1.0
  outer loop
    vertex 69.97075377062951 35.931005436886224 11.0
    vertex 41.970753770629514 34.931005436886224 11.0
    vertex 97.97075377062951 34.931005436886224 11.0
  endloop
endfacet
facet normal 1.5111813181318877e-32 -1.4526083988244488e-32 1.0
  outer loop
    vertex 41.970753770629514 46.931005436886224 11.0
    vertex 68.67665854511691 36.10137630544089 11.0
    vertex 67.47075377062953 36.60087841796403 11.0
  endloop
endfacet
facet normal 1.5111813181318877e-32 -1.4526083988244488e-32 1.0
  outer loop
    vertex 41.970753770629514 46.931005436886224 11.0
    vertex 67.47075377062953 36.60087841796403 11.0
    vertex 66.43521986469678 37.395471530953486 11.0
  endloop
endfacet
facet normal 1.5111813181318877e-32 -1.4526083988244488e-32 1.0
  outer loop
    vertex 41.970753770629514 46.931005436886224 11.0
    vertex 66.43521986469678 37.395471530953486 11.0
    vertex 65.64062675170733 38.431005436886224 11.0
  endloop
endfacet
facet normal 1.5111813181318877e-32 -1.4526083988244488e-32 1.0
  outer loop
    vertex 41.970753770629514 46.931005436886224 11.0
    vertex 65.64062675170733 38.431005436886224 11.0
    vertex 65.14112463918418 39.63691021137362 11.0
  endloop
endfacet
facet normal 1.5111813181318877e-32 -1.4526083988244488e-32 1.0
  outer loop
    vertex 41.970753770629514 46.931005436886224 11.0
    vertex 65.14112463918418 39.63691021137362 11.0
    vertex 64.97075377062951 40.931005436886224 11.0
  endloop
endfacet
facet normal 1.5111813181318877e-32 -1.4526083988244488e-32 1.0
  outer loop
    vertex 69.97075377062951 35.931005436886224 11.0
    vertex 97.97075377062951 34.931005436886224 11.0
    vertex 71.26484899614212 36.10137630544089 11.0
  endloop
endfacet
facet normal 1.5111813181318877e-32 -1.4526083988244488e-32 1.0
  outer loop
    vertex 71.26484899614212 36.10137630544089 11.0
    vertex 97.97075377062951 34.931005436886224 11.0
    vertex 72.47075377062953 36.60087841796403 11.0
  endloop
endfacet
facet normal 1.5111813181318877e-32 -1.4526083988244488e-32 1.0
  outer loop
    vertex 72.47075377062953 36.60087841796403 11.0
    vertex 97.97075377062951 34.931005436886224 11.0
    vertex 73.50628767656225 37.395471530953486 11.0
  endloop
endfacet
facet normal 1.5111813181318877e-32 -1.4526083988244488e-32 1.0
  outer loop
    vertex 73.50628767656225 37.395471530953486 11.0
    vertex 97.97075377062951 34.931005436886224 11.0
    vertex 74.30088078955171 38.431005436886224 11.0
  endloop
endfacet
facet normal 1.5111813181318877e-32 -1.4526083988244488e-32 1.0
  outer loop
    vertex 74.30088078955171 38.431005436886224 11.0
    vertex 97.97075377062951 34.931005436886224 11.0
    vertex 74.80038290207487 39.636910211373625 11.0
  endloop
endfacet
facet normal 1.5111813181318877e-32 -1.4526083988244488e-32 1.0
  outer loop
    vertex 74.80038290207487 39.636910211373625 11.0
    vertex 97.97075377062951 34.931005436886224 11.0
    vertex 74.97075377062951 40.931005436886224 11.0
  endloop
endfacet
facet normal 1.5111813181318877e-32 -1.4526083988244488e-32 1.0
  outer loop
    vertex 41.970753770629514 46.931005436886224 11.0
    vertex 69.97075377062951 45.93100543688623 11.0
    vertex 97.97075377062951 46.931005436886224 11.0
  endloop
endfacet
facet normal 1.5111813181318877e-32 -1.4526083988244488e-32 1.0
  outer loop
    vertex 69.97075377062951 45.93100543688623 11.0
    vertex 41.970753770629514 46.931005436886224 11.0
    vertex 68.67665854511691 45.76063456833157 11.0
  endloop
endfacet
facet normal 1.5111813181318877e-32 -1.4526083988244488e-32 1.0
  outer loop
    vertex 68.67665854511691 45.76063456833157 11.0
    vertex 41.970753770629514 46.931005436886224 11.0
    vertex 67.47075377062951 45.26113245580842 11.0
  endloop
endfacet
facet normal 1.5111813181318877e-32 -1.4526083988244488e-32 1.0
  outer loop
    vertex 67.47075377062951 45.26113245580842 11.0
    vertex 41.970753770629514 46.931005436886224 11.0
    vertex 66.43521986469678 44.46653934281896 11.0
  endloop
endfacet
facet normal 1.5111813181318877e-32 -1.4526083988244488e-32 1.0
  outer loop
    vertex 66.43521986469678 44.46653934281896 11.0
    vertex 41.970753770629514 46.931005436886224 11.0
    vertex 65.64062675170732 43.431005436886224 11.0
  endloop
endfacet
facet normal 1.5111813181318877e-32 -1.4526083988244488e-32 1.0
  outer loop
    vertex 65.64062675170732 43.431005436886224 11.0
    vertex 41.970753770629514 46.931005436886224 11.0
    vertex 65.14112463918417 42.22510066239883 11.0
  endloop
endfacet
facet normal 1.5111813181318877e-32 -1.4526083988244488e-32 1.0
  outer loop
    vertex 65.14112463918417 42.22510066239883 11.0
    vertex 41.970753770629514 46.931005436886224 11.0
    vertex 64.97075377062951 40.931005436886224 11.0
  endloop
endfacet
facet normal 1.5111813181318877e-32 -1.4526083988244488e-32 1.0
  outer loop
    vertex 97.97075377062951 46.931005436886224 11.0
    vertex 69.97075377062951 45.93100543688623 11.0
    vertex 71.26484899614212 45.76063456833157 11.0
  endloop
endfacet
facet normal 1.5111813181318877e-32 -1.4526083988244488e-32 1.0
  outer loop
    vertex 97.97075377062951 46.931005436886224 11.0
    vertex 71.26484899614212 45.76063456833157 11.0
    vertex 72.47075377062951 45.26113245580842 11.0
  endloop
endfacet
facet normal 1.5111813181318877e-32 -1.4526083988244488e-32 1.0
  outer loop
    vertex 97.97075377062951 46.931005436886224 11.0
    vertex 72.47075377062951 45.26113245580842 11.0
    vertex 73.50628767656225 44.46653934281897 11.0
  endloop
endfacet
facet normal 1.5111813181318877e-32 -1.4526083988244488e-32 1.0
  outer loop
    vertex 97.97075377062951 46.931005436886224 11.0
    vertex 73.50628767656225 44.46653934281897 11.0
    vertex 74.30088078955171 43.43100543688623 11.0
  endloop
endfacet
facet normal 1.5111813181318877e-32 -1.4526083988244488e-32 1.0
  outer loop
    vertex 97.97075377062951 46.931005436886224 11.0
    vertex 74.30088078955171 43.43100543688623 11.0
    vertex 74.80038290207487 42.22510066239883 11.0
  endloop
endfacet
facet normal 1.5111813181318877e-32 -1.4526083988244488e-32 1.0
  outer loop
    vertex 97.97075377062951 46.931005436886224 11.0
    vertex 74.80038290207487 42.22510066239883 11.0
    vertex 74.97075377062951 40.931005436886224 11.0
  endloop
endfacet
facet normal 1.5111813181318877e-32 -1.4526083988244488e-32 1.0
  outer loop
    vertex 97.97075377062951 46.931005436886224 11.0
    vertex 74.97075377062951 40.931005436886224 11.0
    vertex 97.97075377062951 34.931005436886224 11.0
  endloop
endfacet
facet normal -0.0 -1.0 -0.0
  outer loop
    vertex 97.97075377062951 34.931005436886224 11.0
    vertex 41.970753770629514 34.931005436886224 0.0
    vertex 97.97075377062951 34.931005436886224 0.0
  endloop
endfacet
facet normal -0.0 -1.0 -0.0
  outer loop
    vertex 41.970753770629514 34.931005436886224 0.0
    vertex 97.97075377062951 34.931005436886224 11.0
    vertex 41.970753770629514 34.931005436886224 11.0
  endloop
endfacet
facet normal -1.0 0.0 0.0
  outer loop
    vertex 41.970753770629514 46.931005436886224 11.0
    vertex 41.970753770629514 34.931005436886224 0.0
    vertex 41.970753770629514 34.931005436886224 11.0
  endloop
endfacet
facet normal -1.0 0.0 0.0
  outer loop
    vertex 41.970753770629514 34.931005436886224 0.0
    vertex 41.970753770629514 46.931005436886224 11.0
    vertex 41.970753770629514 46.931005436886224 0.0
  endloop
endfacet
facet normal 0.13052619222005188 0.9914448613738104 0.0
  outer loop
    vertex 68.67665854511691 36.10137630544089 11.0
    vertex 69.97075377062951 35.931005436886224 0.0
    vertex 68.67665854511691 36.10137630544089 0.0
  endloop
endfacet
facet normal 0.13052619222005188 0.9914448613738104 0.0
  outer loop
    vertex 69.97075377062951 35.931005436886224 0.0
    vertex 68.67665854511691 36.10137630544089 11.0
    vertex 69.97075377062951 35.931005436886224 11.0
  endloop
endfacet
facet normal -0.7933533402912359 0.6087614290087195 0.0
  outer loop
    vertex 74.30088078955171 38.431005436886224 11.0
    vertex 73.50628767656225 37.395471530953486 0.0
    vertex 73.50628767656225 37.395471530953486 11.0
  endloop
endfacet
facet normal -0.7933533402912359 0.6087614290087195 0.0
  outer loop
    vertex 73.50628767656225 37.395471530953486 0.0
    vertex 74.30088078955171 38.431005436886224 11.0
    vertex 74.30088078955171 38.431005436886224 0.0
  endloop
endfacet
facet normal 0.7933533402912359 0.6087614290087195 0.0
  outer loop
    vertex 65.64062675170733 38.431005436886224 0.0
    vertex 66.43521986469678 37.395471530953486 11.0
    vertex 66.43521986469678 37.395471530953486 0.0
  endloop
endfacet
facet normal 0.7933533402912359 0.6087614290087195 0.0
  outer loop
    vertex 66.43521986469678 37.395471530953486 11.0
    vertex 65.64062675170733 38.431005436886224 0.0
    vertex 65.64062675170733 38.431005436886224 11.0
  endloop
endfacet
facet normal 0.6087614290087195 0.7933533402912359 0.0
  outer loop
    vertex 66.43521986469678 37.395471530953486 11.0
    vertex 67.47075377062953 36.60087841796403 0.0
    vertex 66.43521986469678 37.395471530953486 0.0
  endloop
endfacet
facet normal 0.6087614290087195 0.7933533402912359 0.0
  outer loop
    vertex 67.47075377062953 36.60087841796403 0.0
    vertex 66.43521986469678 37.395471530953486 11.0
    vertex 67.47075377062953 36.60087841796403 11.0
  endloop
endfacet
facet normal -0.9914448613738109 -0.13052619222004763 -0.0
  outer loop
    vertex 74.80038290207487 42.22510066239883 11.0
    vertex 74.97075377062951 40.931005436886224 0.0
    vertex 74.97075377062951 40.931005436886224 11.0
  endloop
endfacet
facet normal -0.9914448613738109 -0.13052619222004763 -0.0
  outer loop
    vertex 74.97075377062951 40.931005436886224 0.0
    vertex 74.80038290207487 42.22510066239883 11.0
    vertex 74.80038290207487 42.22510066239883 0.0
  endloop
endfacet
facet normal -0.7933533402912359 -0.6087614290087195 -0.0
  outer loop
    vertex 73.50628767656225 44.46653934281897 11.0
    vertex 74.30088078955171 43.43100543688623 0.0
    vertex 74.30088078955171 43.43100543688623 11.0
  endloop
endfacet
facet normal -0.7933533402912359 -0.6087614290087195 -0.0
  outer loop
    vertex 74.30088078955171 43.43100543688623 0.0
    vertex 73.50628767656225 44.46653934281897 11.0
    vertex 73.50628767656225 44.46653934281897 0.0
  endloop
endfacet
facet normal 0.9238795325112866 0.3826834323650902 0.0
  outer loop
    vertex 65.14112463918418 39.63691021137362 0.0
    vertex 65.64062675170733 38.431005436886224 11.0
    vertex 65.64062675170733 38.431005436886224 0.0
  endloop
endfacet
facet normal 0.9238795325112866 0.3826834323650902 0.0
  outer loop
    vertex 65.64062675170733 38.431005436886224 11.0
    vertex 65.14112463918418 39.63691021137362 0.0
    vertex 65.14112463918418 39.63691021137362 11.0
  endloop
endfacet
facet normal 0.99144486137381 0.13052619222005557 0.0
  outer loop
    vertex 64.97075377062951 40.931005436886224 0.0
    vertex 65.14112463918418 39.63691021137362 11.0
    vertex 65.14112463918418 39.63691021137362 0.0
  endloop
endfacet
facet normal 0.99144486137381 0.13052619222005557 0.0
  outer loop
    vertex 65.14112463918418 39.63691021137362 11.0
    vertex 64.97075377062951 40.931005436886224 0.0
    vertex 64.97075377062951 40.931005436886224 11.0
  endloop
endfacet
facet normal -0.13052619222005188 0.9914448613738104 0.0
  outer loop
    vertex 69.97075377062951 35.931005436886224 11.0
    vertex 71.26484899614212 36.10137630544089 0.0
    vertex 69.97075377062951 35.931005436886224 0.0
  endloop
endfacet
facet normal -0.13052619222005188 0.9914448613738104 0.0
  outer loop
    vertex 71.26484899614212 36.10137630544089 0.0
    vertex 69.97075377062951 35.931005436886224 11.0
    vertex 71.26484899614212 36.10137630544089 11.0
  endloop
endfacet
facet normal -0.9238795325112842 0.3826834323650961 0.0
  outer loop
    vertex 74.80038290207487 39.636910211373625 11.0
    vertex 74.30088078955171 38.431005436886224 0.0
    vertex 74.30088078955171 38.431005436886224 11.0
  endloop
endfacet
facet normal -0.9238795325112842 0.3826834323650961 0.0
  outer loop
    vertex 74.30088078955171 38.431005436886224 0.0
    vertex 74.80038290207487 39.636910211373625 11.0
    vertex 74.80038290207487 39.636910211373625 0.0
  endloop
endfacet
facet normal -0.6087614290087195 -0.7933533402912359 -0.0
  outer loop
    vertex 73.50628767656225 44.46653934281897 11.0
    vertex 72.47075377062951 45.26113245580842 0.0
    vertex 73.50628767656225 44.46653934281897 0.0
  endloop
endfacet
facet normal -0.6087614290087195 -0.7933533402912359 -0.0
  outer loop
    vertex 72.47075377062951 45.26113245580842 0.0
    vertex 73.50628767656225 44.46653934281897 11.0
    vertex 72.47075377062951 45.26113245580842 11.0
  endloop
endfacet
facet normal -0.9914448613738109 0.13052619222004763 0.0
  outer loop
    vertex 74.97075377062951 40.931005436886224 11.0
    vertex 74.80038290207487 39.636910211373625 0.0
    vertex 74.80038290207487 39.636910211373625 11.0
  endloop
endfacet
facet normal -0.9914448613738109 0.13052619222004763 0.0
  outer loop
    vertex 74.80038290207487 39.636910211373625 0.0
    vertex 74.97075377062951 40.931005436886224 11.0
    vertex 74.97075377062951 40.931005436886224 0.0
  endloop
endfacet
facet normal 0.9914448613738109 -0.13052619222004763 0.0
  outer loop
    vertex 65.14112463918417 42.22510066239883 0.0
    vertex 64.97075377062951 40.931005436886224 11.0
    vertex 64.97075377062951 40.931005436886224 0.0
  endloop
endfacet
facet normal 0.9914448613738109 -0.13052619222004763 0.0
  outer loop
    vertex 64.97075377062951 40.931005436886224 11.0
    vertex 65.14112463918417 42.22510066239883 0.0
    vertex 65.14112463918417 42.22510066239883 11.0
  endloop
endfacet
facet normal -0.6087614290087238 0.793353340291233 0.0
  outer loop
    vertex 72.47075377062953 36.60087841796403 11.0
    vertex 73.50628767656225 37.395471530953486 0.0
    vertex 72.47075377062953 36.60087841796403 0.0
  endloop
endfacet
facet normal -0.6087614290087238 0.793353340291233 0.0
  outer loop
    vertex 73.50628767656225 37.395471530953486 0.0
    vertex 72.47075377062953 36.60087841796403 11.0
    vertex 73.50628767656225 37.395471530953486 11.0
  endloop
endfacet
facet normal -0.9238795325112842 -0.3826834323650961 -0.0
  outer loop
    vertex 74.30088078955171 43.43100543688623 11.0
    vertex 74.80038290207487 42.22510066239883 0.0
    vertex 74.80038290207487 42.22510066239883 11.0
  endloop
endfacet
facet normal -0.9238795325112842 -0.3826834323650961 -0.0
  outer loop
    vertex 74.80038290207487 42.22510066239883 0.0
    vertex 74.30088078955171 43.43100543688623 11.0
    vertex 74.30088078955171 43.43100543688623 0.0
  endloop
endfacet
facet normal -0.3826834323650902 -0.9238795325112866 -0.0
  outer loop
    vertex 72.47075377062951 45.26113245580842 11.0
    vertex 71.26484899614212 45.76063456833157 0.0
    vertex 72.47075377062951 45.26113245580842 0.0
  endloop
endfacet
facet normal -0.3826834323650902 -0.9238795325112866 -0.0
  outer loop
    vertex 71.26484899614212 45.76063456833157 0.0
    vertex 72.47075377062951 45.26113245580842 11.0
    vertex 71.26484899614212 45.76063456833157 11.0
  endloop
endfacet
facet normal 0.3826834323650902 0.9238795325112866 0.0
  outer loop
    vertex 67.47075377062953 36.60087841796403 11.0
    vertex 68.67665854511691 36.10137630544089 0.0
    vertex 67.47075377062953 36.60087841796403 0.0
  endloop
endfacet
facet normal 0.3826834323650902 0.9238795325112866 0.0
  outer loop
    vertex 68.67665854511691 36.10137630544089 0.0
    vertex 67.47075377062953 36.60087841796403 11.0
    vertex 68.67665854511691 36.10137630544089 11.0
  endloop
endfacet
facet normal -0.13052619222005188 -0.9914448613738104 -0.0
  outer loop
    vertex 71.26484899614212 45.76063456833157 11.0
    vertex 69.97075377062951 45.93100543688623 0.0
    vertex 71.26484899614212 45.76063456833157 0.0
  endloop
endfacet
facet normal -0.13052619222005188 -0.9914448613738104 -0.0
  outer loop
    vertex 69.97075377062951 45.93100543688623 0.0
    vertex 71.26484899614212 45.76063456833157 11.0
    vertex 69.97075377062951 45.93100543688623 11.0
  endloop
endfacet
facet normal 0.13052619222005074 -0.9914448613738106 0.0
  outer loop
    vertex 69.97075377062951 45.93100543688623 11.0
    vertex 68.67665854511691 45.76063456833157 0.0
    vertex 69.97075377062951 45.93100543688623 0.0
  endloop
endfacet
facet normal 0.13052619222005074 -0.9914448613738106 0.0
  outer loop
    vertex 68.67665854511691 45.76063456833157 0.0
    vertex 69.97075377062951 45.93100543688623 11.0
    vertex 68.67665854511691 45.76063456833157 11.0
  endloop
endfacet
facet normal 0.3826834323650902 -0.9238795325112866 0.0
  outer loop
    vertex 68.67665854511691 45.76063456833157 11.0
    vertex 67.47075377062951 45.26113245580842 0.0
    vertex 68.67665854511691 45.76063456833157 0.0
  endloop
endfacet
facet normal 0.3826834323650902 -0.9238795325112866 0.0
  outer loop
    vertex 67.47075377062951 45.26113245580842 0.0
    vertex 68.67665854511691 45.76063456833157 11.0
    vertex 67.47075377062951 45.26113245580842 11.0
  endloop
endfacet
facet normal 0.6087614290087265 -0.7933533402912308 0.0
  outer loop
    vertex 67.47075377062951 45.26113245580842 11.0
    vertex 66.43521986469678 44.46653934281896 0.0
    vertex 67.47075377062951 45.26113245580842 0.0
  endloop
endfacet
facet normal 0.6087614290087265 -0.7933533402912308 0.0
  outer loop
    vertex 66.43521986469678 44.46653934281896 0.0
    vertex 67.47075377062951 45.26113245580842 11.0
    vertex 66.43521986469678 44.46653934281896 11.0
  endloop
endfacet
facet normal -0.3826834323650872 0.9238795325112878 0.0
  outer loop
    vertex 71.26484899614212 36.10137630544089 11.0
    vertex 72.47075377062953 36.60087841796403 0.0
    vertex 71.26484899614212 36.10137630544089 0.0
  endloop
endfacet
facet normal -0.3826834323650872 0.9238795325112878 0.0
  outer loop
    vertex 72.47075377062953 36.60087841796403 0.0
    vertex 71.26484899614212 36.10137630544089 11.0
    vertex 72.47075377062953 36.60087841796403 11.0
  endloop
endfacet
facet normal 0.9238795325112866 -0.3826834323650902 0.0
  outer loop
    vertex 65.64062675170732 43.431005436886224 0.0
    vertex 65.14112463918417 42.22510066239883 11.0
    vertex 65.14112463918417 42.22510066239883 0.0
  endloop
endfacet
facet normal 0.9238795325112866 -0.3826834323650902 0.0
  outer loop
    vertex 65.14112463918417 42.22510066239883 11.0
    vertex 65.64062675170732 43.431005436886224 0.0
    vertex 65.64062675170732 43.431005436886224 11.0
  endloop
endfacet
facet normal 0.7933533402912317 -0.608761429008725 0.0
  outer loop
    vertex 66.43521986469678 44.46653934281896 0.0
    vertex 65.64062675170732 43.431005436886224 11.0
    vertex 65.64062675170732 43.431005436886224 0.0
  endloop
endfacet
facet normal 0.7933533402912317 -0.608761429008725 0.0
  outer loop
    vertex 65.64062675170732 43.431005436886224 11.0
    vertex 66.43521986469678 44.46653934281896 0.0
    vertex 66.43521986469678 44.46653934281896 11.0
  endloop
endfacet
facet normal 0.0 0.0 -1.0
  outer loop
    vertex 41.970753770629514 46.931005436886224 0.0
    vertex 68.67665854511691 45.76063456833157 0.0
    vertex 41.970753770629514 34.931005436886224 0.0
  endloop
endfacet
facet normal 0.0 0.0 -1.0
  outer loop
    vertex 68.67665854511691 45.76063456833157 0.0
    vertex 41.970753770629514 46.931005436886224 0.0
    vertex 69.97075377062951 45.93100543688623 0.0
  endloop
endfacet
facet normal 0.0 0.0 -1.0
  outer loop
    vertex 69.97075377062951 45.93100543688623 0.0
    vertex 41.970753770629514 46.931005436886224 0.0
    vertex 97.97075377062951 46.931005436886224 0.0
  endloop
endfacet
facet normal 0.0 0.0 -1.0
  outer loop
    vertex 41.970753770629514 34.931005436886224 0.0
    vertex 68.67665854511691 45.76063456833157 0.0
    vertex 67.47075377062951 45.26113245580842 0.0
  endloop
endfacet
facet normal 0.0 0.0 -1.0
  outer loop
    vertex 41.970753770629514 34.931005436886224 0.0
    vertex 67.47075377062951 45.26113245580842 0.0
    vertex 66.43521986469678 44.46653934281896 0.0
  endloop
endfacet
facet normal 0.0 0.0 -1.0
  outer loop
    vertex 41.970753770629514 34.931005436886224 0.0
    vertex 66.43521986469678 44.46653934281896 0.0
    vertex 65.64062675170732 43.431005436886224 0.0
  endloop
endfacet
facet normal 0.0 0.0 -1.0
  outer loop
    vertex 41.970753770629514 34.931005436886224 0.0
    vertex 65.64062675170732 43.431005436886224 0.0
    vertex 65.14112463918417 42.22510066239883 0.0
  endloop
endfacet
facet normal 0.0 0.0 -1.0
  outer loop
    vertex 41.970753770629514 34.931005436886224 0.0
    vertex 65.14112463918417 42.22510066239883 0.0
    vertex 64.97075377062951 40.931005436886224 0.0
  endloop
endfacet
facet normal 0.0 0.0 -1.0
  outer loop
    vertex 69.97075377062951 45.93100543688623 0.0
    vertex 97.97075377062951 46.931005436886224 0.0
    vertex 71.26484899614212 45.76063456833157 0.0
  endloop
endfacet
facet normal 0.0 0.0 -1.0
  outer loop
    vertex 71.26484899614212 45.76063456833157 0.0
    vertex 97.97075377062951 46.931005436886224 0.0
    vertex 72.47075377062951 45.26113245580842 0.0
  endloop
endfacet
facet normal 0.0 0.0 -1.0
  outer loop
    vertex 72.47075377062951 45.26113245580842 0.0
    vertex 97.97075377062951 46.931005436886224 0.0
    vertex 73.50628767656225 44.46653934281897 0.0
  endloop
endfacet
facet normal 0.0 0.0 -1.0
  outer loop
    vertex 73.50628767656225 44.46653934281897 0.0
    vertex 97.97075377062951 46.931005436886224 0.0
    vertex 74.30088078955171 43.43100543688623 0.0
  endloop
endfacet
facet normal 0.0 0.0 -1.0
  outer loop
    vertex 74.30088078955171 43.43100543688623 0.0
    vertex 97.97075377062951 46.931005436886224 0.0
    vertex 74.80038290207487 42.22510066239883 0.0
  endloop
endfacet
facet normal 0.0 0.0 -1.0
  outer loop
    vertex 74.80038290207487 42.22510066239883 0.0
    vertex 97.97075377062951 46.931005436886224 0.0
    vertex 74.97075377062951 40.931005436886224 0.0
  endloop
endfacet
facet normal 0.0 0.0 -1.0
  outer loop
    vertex 41.970753770629514 34.931005436886224 0.0
    vertex 69.97075377062951 35.931005436886224 0.0
    vertex 97.97075377062951 34.931005436886224 0.0
  endloop
endfacet
facet normal 0.0 0.0 -1.0
  outer loop
    vertex 69.97075377062951 35.931005436886224 0.0
    vertex 41.970753770629514 34.931005436886224 0.0
    vertex 68.67665854511691 36.10137630544089 0.0
  endloop
endfacet
facet normal 0.0 0.0 -1.0
  outer loop
    vertex 68.67665854511691 36.10137630544089 0.0
    vertex 41.970753770629514 34.931005436886224 0.0
    vertex 67.47075377062953 36.60087841796403 0.0
  endloop
endfacet
facet normal 0.0 0.0 -1.0
  outer loop
    vertex 67.47075377062953 36.60087841796403 0.0
    vertex 41.970753770629514 34.931005436886224 0.0
    vertex 66.43521986469678 37.395471530953486 0.0
  endloop
endfacet
facet normal 0.0 0.0 -1.0
  outer loop
    vertex 66.43521986469678 37.395471530953486 0.0
    vertex 41.970753770629514 34.931005436886224 0.0
    vertex 65.64062675170733 38.431005436886224 0.0
  endloop
endfacet
facet normal 0.0 0.0 -1.0
  outer loop
    vertex 65.64062675170733 38.431005436886224 0.0
    vertex 41.970753770629514 34.931005436886224 0.0
    vertex 65.14112463918418 39.63691021137362 0.0
  endloop
endfacet
facet normal 0.0 0.0 -1.0
  outer loop
    vertex 65.14112463918418 39.63691021137362 0.0
    vertex 41.970753770629514 34.931005436886224 0.0
    vertex 64.97075377062951 40.931005436886224 0.0
  endloop
endfacet
facet normal 0.0 0.0 -1.0
  outer loop
    vertex 97.97075377062951 34.931005436886224 0.0
    vertex 69.97075377062951 35.931005436886224 0.0
    vertex 71.26484899614212 36.10137630544089 0.0
  endloop
endfacet
facet normal 0.0 0.0 -1.0
  outer loop
    vertex 97.97075377062951 34.931005436886224 0.0
    vertex 71.26484899614212 36.10137630544089 0.0
    vertex 72.47075377062953 36.60087841796403 0.0
  endloop
endfacet
facet normal 0.0 0.0 -1.0
  outer loop
    vertex 97.97075377062951 34.931005436886224 0.0
    vertex 72.47075377062953 36.60087841796403 0.0
    vertex 73.50628767656225 37.395471530953486 0.0
  endloop
endfacet
facet normal 0.0 0.0 -1.0
  outer loop
    vertex 97.97075377062951 34.931005436886224 0.0
    vertex 73.50628767656225 37.395471530953486 0.0
    vertex 74.30088078955171 38.431005436886224 0.0
  endloop
endfacet
facet normal 0.0 0.0 -1.0
  outer loop
    vertex 97.97075377062951 34.931005436886224 0.0
    vertex 74.30088078955171 38.431005436886224 0.0
    vertex 74.80038290207487 39.636910211373625 0.0
  endloop
endfacet
facet normal 0.0 0.0 -1.0
  outer loop
    vertex 97.97075377062951 34.931005436886224 0.0
    vertex 74.80038290207487 39.636910211373625 0.0
    vertex 74.97075377062951 40.931005436886224 0.0
  endloop
endfacet
facet normal 0.0 0.0 -1.0
  outer loop
    vertex 97.97075377062951 34.931005436886224 0.0
    vertex 74.97075377062951 40.931005436886224 0.0
    vertex 97.97075377062951 46.931005436886224 0.0
  endloop
endfacet
endsolid BARRA MOTORES
